<svg width="219" height="48" viewBox="0 0 219 48" fill="none" xmlns="http://www.w3.org/2000/svg">
<path d="M33.0196 39.9416C33.2929 39.9932 33.4817 40.3187 33.6505 40.5275C33.6901 40.5764 33.6902 40.5765 33.7305 40.6262C33.8126 40.7272 33.8948 40.8287 33.9766 40.9299C34.0262 40.9909 34.0755 41.0524 34.1251 41.1135C34.3651 41.4096 34.6027 41.7074 34.836 42.009C34.9722 42.1843 35.1118 42.3572 35.253 42.5285C35.3791 42.6816 35.5051 42.8353 35.6299 42.9894C35.6602 43.0266 35.6605 43.0265 35.6915 43.0646C35.7433 43.1289 35.7934 43.1946 35.8438 43.2599C35.8711 43.2949 35.8987 43.3304 35.9268 43.3664C35.997 43.5122 35.9861 43.5822 35.9337 43.7346C35.8527 43.8225 35.7806 43.8869 35.6866 43.9582C35.659 43.9797 35.6311 44.0014 35.6026 44.0236C34.83 44.6124 34.0022 45.1542 33.1505 45.6183C33.1128 45.6391 33.075 45.6595 33.0362 45.6808C30.6908 46.9662 28.0736 47.7485 25.4083 47.9396C25.3771 47.9421 25.3457 47.9449 25.3135 47.9474C22.1465 48.1954 18.9358 47.5606 16.0567 46.2316C16.0181 46.214 15.9793 46.1961 15.9395 46.1779C12.5265 44.6154 12.5264 44.6153 12.0118 43.6027C12.0502 43.3819 12.1684 43.2393 12.3135 43.0773C12.3569 43.0274 12.4002 42.977 12.4434 42.9269C12.4656 42.9013 12.4879 42.8753 12.5108 42.8488C12.6184 42.7216 12.7206 42.5901 12.8223 42.4582C12.9925 42.2381 13.165 42.0204 13.3409 41.8049C14.0407 40.9519 14.0409 40.9519 14.7032 40.0695C14.8131 39.9356 14.9384 39.9454 15.0997 39.966C15.2232 40.038 15.3299 40.1292 15.4395 40.2209C18.2414 42.4662 21.9815 43.4186 25.5176 43.051C28.1439 42.7418 30.75 41.7622 32.7921 40.0402C32.8893 39.9663 32.8894 39.9662 33.0196 39.9416ZM14.4444 0.00213377C15.0857 -0.0261971 15.7495 0.229931 16.2491 0.63104C16.6643 1.03908 17.0384 1.65107 17.0626 2.2453V3.00702C17.0627 3.20443 17.0618 3.40237 17.0616 3.59979V5.34393C17.0612 5.87702 17.0607 6.41045 17.0606 6.94354C17.0605 7.80836 17.061 8.67345 17.0606 9.53827C17.0602 10.3784 17.0598 11.2186 17.0596 12.0588C17.0596 12.1106 17.0596 12.1627 17.0596 12.216C17.0596 12.4757 17.0587 12.7356 17.0587 12.9953C17.0582 15.1508 17.0577 17.3066 17.0567 19.4621C17.0779 19.4482 17.0994 19.4344 17.1212 19.4201C17.2184 19.3565 17.3159 19.2922 17.4131 19.2287C17.4465 19.2069 17.4803 19.1848 17.5147 19.1623C17.7351 19.0184 17.9568 18.8795 18.1876 18.7531C18.2198 18.7354 18.252 18.7167 18.2852 18.6984C19.8616 17.8399 21.6696 17.2718 23.4727 17.2619C23.5106 17.2616 23.5489 17.2622 23.588 17.2619C24.4049 17.2568 25.2105 17.2527 26.0167 17.4025C26.0627 17.411 26.1089 17.4192 26.1563 17.4279C27.2264 17.6318 28.259 17.9677 29.2354 18.4543C29.273 18.4729 29.311 18.4917 29.3497 18.5109C29.467 18.5697 29.5837 18.6294 29.7003 18.6896C29.7343 18.707 29.7687 18.7244 29.8038 18.7424C30.1807 18.9419 30.5335 19.1824 30.8887 19.4181C30.8891 19.3738 30.8883 19.3736 30.8887 19.3283C30.8915 19.0184 30.8953 18.7085 30.8995 18.3986C30.9009 18.2834 30.9024 18.1682 30.9034 18.0529C30.9049 17.8864 30.9068 17.7194 30.9092 17.5529C30.9095 17.5021 30.9099 17.451 30.9102 17.3986C30.9236 16.6336 31.1806 15.9812 31.7149 15.4308C31.8525 15.314 31.9947 15.2164 32.1495 15.1242C32.1839 15.1035 32.2185 15.083 32.254 15.0617C32.8309 14.7439 33.5163 14.6753 34.1475 14.8576C34.8473 15.1097 35.4183 15.5483 35.7491 16.2306C35.9346 16.6808 35.9968 17.1251 35.9942 17.6096C35.9946 17.6887 35.9948 17.6889 35.9952 17.7697C35.9957 17.9152 35.9955 18.0608 35.9952 18.2062C35.995 18.3639 35.9957 18.5222 35.9962 18.6799V20.467C35.9962 20.5399 35.9971 20.6137 35.9971 20.6867C35.9977 21.37 35.9967 22.0532 35.9962 22.7365C35.9957 23.3587 35.9971 23.9815 35.9981 24.6037C35.9992 25.2449 35.9994 25.8863 35.9991 26.5275C35.9989 26.8865 35.9993 27.2457 36.0001 27.6047C36.0007 27.9107 35.9998 28.2166 35.9991 28.5226C35.9987 28.6782 35.9994 28.8339 36.0001 28.9894C36.0103 31.9547 35.0916 34.8914 33.1231 37.1369C33.0802 37.186 33.0374 37.2356 32.9952 37.2853C32.5324 37.8271 32.0235 38.3549 31.4542 38.7834C31.4311 38.8012 31.4076 38.8188 31.3839 38.8371C30.3439 39.6399 29.2085 40.2693 27.9737 40.7111C27.9392 40.7236 27.9048 40.7364 27.8692 40.7492C26.0354 41.3995 23.9758 41.5729 22.0587 41.2365C21.9954 41.2256 21.9952 41.2261 21.9307 41.215C19.1606 40.7226 16.4377 39.2124 14.7081 36.9426C14.6646 36.8874 14.6207 36.8326 14.5772 36.7775C12.6822 34.3576 12.0038 31.5311 12.0059 28.5021C12.0058 28.3896 12.0051 28.2768 12.0049 28.1642V26.3478C12.0045 25.6637 12.004 24.9792 12.004 24.2951V22.1389C12.0037 21.0748 12.003 20.0106 12.003 18.9465V18.0939C12.003 18.0124 12.004 17.9304 12.004 17.8488C12.004 16.579 12.0036 15.309 12.003 14.0392C12.0023 12.6115 12.002 11.1838 12.002 9.75604V9.18573C12.002 8.58287 12.0014 7.97999 12.001 7.37713C12.0007 6.77149 12.0008 6.1654 12.001 5.55975C12.0012 5.20038 12.0005 4.841 12.0001 4.48163C11.9998 4.21299 12.0007 3.94363 12.001 3.67499C12.0011 3.56659 12.0003 3.45819 12.0001 3.34979C11.9998 3.20211 12.0007 3.05411 12.001 2.90643C12.0007 2.84337 12.0004 2.84284 12.0001 2.7785C12.004 2.03684 12.212 1.33088 12.7198 0.776548C13.1953 0.322659 13.7915 0.0553859 14.4444 0.00213377ZM23.9034 22.6027C23.409 22.605 22.9304 22.6208 22.4503 22.7482C22.4158 22.7571 22.3812 22.7654 22.3458 22.7746C21.1602 23.0894 20.1229 23.6478 19.2315 24.5002C19.2098 24.5207 19.1885 24.5416 19.1661 24.5627C17.8488 25.8096 17.118 27.5394 17.045 29.3527C16.9975 31.3329 17.7301 33.0887 19.0577 34.5334C20.3209 35.8626 22.0673 36.5042 23.8614 36.6008C25.8437 36.644 27.6041 35.817 29.0176 34.4621C29.498 33.9649 29.8809 33.397 30.1924 32.7805C30.2062 32.7538 30.2203 32.7268 30.2344 32.6994C31.05 31.1012 31.1576 29.1833 30.6456 27.4738C30.3923 26.6801 30.0133 25.941 29.4962 25.2892C29.4762 25.2639 29.4562 25.2382 29.4356 25.2121C28.4881 24.0268 27.2231 23.1914 25.7618 22.7971C25.731 22.7887 25.6998 22.7803 25.668 22.7717C25.1176 22.6328 24.5693 22.5999 24.0049 22.6027C23.9549 22.6029 23.9546 22.6026 23.9034 22.6027Z" fill="white"/>
<path d="M55.328 18.4305C54.2187 18.4305 53.2267 18.2278 52.352 17.8225L51.264 19.1345C51.0293 19.4545 50.9653 19.7745 51.072 20.0945C51.2 20.3932 51.5093 20.5425 52 20.5425H56.192C58.0907 20.5425 59.6267 20.9158 60.8 21.6625C61.9733 22.3878 62.56 23.5505 62.56 25.1505C62.56 26.1105 62.3147 26.9958 61.824 27.8065C61.3333 28.6172 60.5547 29.2678 59.488 29.7585C58.4427 30.2705 57.0667 30.5265 55.36 30.5265C53.1413 30.5265 51.36 30.1105 50.016 29.2785C48.672 28.4465 48 27.1772 48 25.4705C48 24.8518 48.1493 24.2758 48.448 23.7425C48.768 23.2305 49.1627 22.7718 49.632 22.3665C49.0133 21.9825 48.6293 21.4065 48.48 20.6385C48.352 19.8705 48.5867 19.1132 49.184 18.3665L50.624 16.5745C49.6 15.5078 49.088 14.1958 49.088 12.6385C49.088 11.6145 49.3333 10.6652 49.824 9.7905C50.3147 8.8945 51.0187 8.17983 51.936 7.6465C52.8747 7.11317 54.0053 6.8465 55.328 6.8465C56.1813 6.8465 56.9707 6.9745 57.696 7.2305H63.648V9.2465L60.672 9.3425V9.5665C61.2267 10.4838 61.504 11.5078 61.504 12.6385C61.504 13.6625 61.2587 14.6225 60.768 15.5185C60.2987 16.3932 59.5947 17.0972 58.656 17.6305C57.7387 18.1638 56.6293 18.4305 55.328 18.4305ZM55.328 16.1265C56.3733 16.1265 57.2267 15.8172 57.888 15.1985C58.5707 14.5798 58.912 13.7265 58.912 12.6385C58.912 11.5505 58.5707 10.7078 57.888 10.1105C57.2267 9.49183 56.3733 9.1825 55.328 9.1825C54.2613 9.1825 53.3867 9.49183 52.704 10.1105C52.0213 10.7078 51.68 11.5505 51.68 12.6385C51.68 13.7265 52.0213 14.5798 52.704 15.1985C53.3867 15.8172 54.2613 16.1265 55.328 16.1265ZM50.656 25.3745C50.656 26.3132 51.0933 27.0172 51.968 27.4865C52.8427 27.9558 53.9733 28.1905 55.36 28.1905C56.704 28.1905 57.792 27.9238 58.624 27.3905C59.4773 26.8572 59.904 26.1425 59.904 25.2465C59.904 24.5425 59.6053 23.9452 59.008 23.4545C58.4107 22.9852 57.312 22.7505 55.712 22.7505H52.096C51.136 23.4545 50.656 24.3292 50.656 25.3745Z" fill="white"/>
<path d="M71.9635 23.4865C70.4702 23.4865 69.1475 23.1452 67.9955 22.4625C66.8648 21.7585 65.9688 20.7878 65.3075 19.5505C64.6462 18.2918 64.3155 16.8305 64.3155 15.1665C64.3155 13.5025 64.6355 12.0518 65.2755 10.8145C65.9368 9.55583 66.8435 8.58517 67.9955 7.9025C69.1475 7.1985 70.4915 6.8465 72.0275 6.8465C73.5635 6.8465 74.8755 7.1985 75.9635 7.9025C77.0515 8.58517 77.8835 9.49183 78.4595 10.6225C79.0355 11.7532 79.3235 12.9692 79.3235 14.2705C79.3235 14.5052 79.3128 14.7398 79.2915 14.9745C79.2915 15.2092 79.2915 15.4758 79.2915 15.7745H66.9715C67.0355 16.9478 67.3022 17.9292 67.7715 18.7185C68.2622 19.4865 68.8702 20.0625 69.5955 20.4465C70.3422 20.8305 71.1315 21.0225 71.9635 21.0225C73.1368 21.0225 74.0542 20.7772 74.7155 20.2865C75.3768 19.7958 75.8782 19.1132 76.2195 18.2385H78.8755C78.5128 19.7105 77.7555 20.9585 76.6035 21.9825C75.4515 22.9852 73.9048 23.4865 71.9635 23.4865ZM71.9635 9.2465C70.7262 9.2465 69.6382 9.61983 68.6995 10.3665C67.7822 11.1132 67.2168 12.1585 67.0035 13.5025H76.6675C76.5822 12.1798 76.1022 11.1452 75.2275 10.3985C74.3742 9.6305 73.2862 9.2465 71.9635 9.2465Z" fill="white"/>
<path d="M89.655 23.1025C88.2043 23.1025 87.063 22.7505 86.231 22.0465C85.399 21.3425 84.983 20.0732 84.983 18.2385V9.5345H80.951V7.2305H83.351C84.439 7.2305 85.0683 6.69717 85.239 5.6305L85.687 3.1665H87.671V7.2305H94.007V9.5345H87.671V18.2385C87.671 19.1345 87.8737 19.7638 88.279 20.1265C88.7057 20.4892 89.431 20.6705 90.455 20.6705H94.007V23.1025H89.655Z" fill="white"/>
<path d="M104.722 23.4865C103.507 23.4865 102.472 23.2412 101.618 22.7505C100.786 22.2385 100.168 21.5452 99.7625 20.6705H99.5705L99.2825 23.1025H97.0745V0.0625H99.7625V9.5025C100.168 8.7985 100.797 8.17983 101.651 7.6465C102.525 7.11317 103.549 6.8465 104.722 6.8465C106.088 6.8465 107.293 7.1665 108.339 7.8065C109.384 8.4465 110.205 9.38517 110.803 10.6225C111.4 11.8598 111.699 13.3638 111.699 15.1345C111.699 16.9265 111.4 18.4518 110.803 19.7105C110.205 20.9478 109.373 21.8865 108.306 22.5265C107.261 23.1665 106.067 23.4865 104.722 23.4865ZM104.371 20.9265C105.715 20.9265 106.813 20.4572 107.667 19.5185C108.541 18.5585 108.979 17.1078 108.979 15.1665C108.979 13.2252 108.541 11.7852 107.667 10.8465C106.813 9.8865 105.715 9.4065 104.371 9.4065C103.027 9.4065 101.917 9.8865 101.042 10.8465C100.168 11.7852 99.7305 13.2252 99.7305 15.1665C99.7305 17.1078 100.168 18.5585 101.042 19.5185C101.917 20.4572 103.027 20.9265 104.371 20.9265Z" fill="white"/>
<path d="M120.174 4.4145C119.534 4.4145 119.001 4.20117 118.574 3.7745C118.147 3.34783 117.934 2.83583 117.934 2.2385C117.934 1.61983 118.147 1.10783 118.574 0.702499C119.001 0.275833 119.534 0.0625 120.174 0.0625C120.793 0.0625 121.315 0.275833 121.742 0.702499C122.19 1.10783 122.414 1.61983 122.414 2.2385C122.414 2.83583 122.19 3.34783 121.742 3.7745C121.315 4.20117 120.793 4.4145 120.174 4.4145ZM113.966 23.1025V20.7985H119.022V10.3345C119.022 9.80117 118.755 9.5345 118.222 9.5345H114.51V7.2305H118.862C120.761 7.2305 121.71 8.17983 121.71 10.0785V20.7985H126.766V23.1025H113.966Z" fill="white"/>
<path d="M138.217 23.1025C136.767 23.1025 135.626 22.7505 134.794 22.0465C133.962 21.3425 133.546 20.0732 133.546 18.2385V9.5345H129.513V7.2305H131.913C133.001 7.2305 133.631 6.69717 133.801 5.6305L134.25 3.1665H136.233V7.2305H142.57V9.5345H136.233V18.2385C136.233 19.1345 136.436 19.7638 136.841 20.1265C137.268 20.4892 137.994 20.6705 139.018 20.6705H142.57V23.1025H138.217Z" fill="white"/>
<path d="M214.777 47.7836V44.2086L211.826 38.6836H213.061L215.323 43.1036L217.585 38.6836H218.82L215.869 44.2086V47.7836H214.777Z" fill="white"/>
<path d="M205.019 47.7836V38.6836H206.137L210.271 45.8726V38.6836H211.35V47.7836H210.219L206.085 40.5946V47.7836H205.019Z" fill="white"/>
<path d="M197.562 47.7836L200.409 38.6836H201.67L204.504 47.7836H203.308L202.645 45.5216H199.421L198.758 47.7836H197.562ZM201.007 40.2176L199.694 44.6116H202.372L201.059 40.2176H201.007Z" fill="white"/>
<path d="M190.95 47.7836V38.6836H193.979C194.673 38.6836 195.24 38.8093 195.682 39.0606C196.124 39.3119 196.449 39.6456 196.657 40.0616C196.865 40.4776 196.969 40.9369 196.969 41.4396C196.969 41.9423 196.865 42.4016 196.657 42.8176C196.449 43.2336 196.124 43.5673 195.682 43.8186C195.24 44.0699 194.673 44.1956 193.979 44.1956H192.042V47.7836H190.95ZM192.042 43.1946H193.953C194.595 43.1946 195.071 43.0343 195.383 42.7136C195.695 42.3843 195.851 41.9596 195.851 41.4396C195.851 40.9196 195.695 40.4949 195.383 40.1656C195.071 39.8363 194.595 39.6716 193.953 39.6716H192.042V43.1946Z" fill="white"/>
<path d="M183.494 47.7836V38.6836H184.664L186.744 43.0126L188.824 38.6836H189.994V47.7836H188.928V40.7896L187.16 44.4686H186.328L184.56 40.8026V47.7836H183.494Z" fill="white"/>
<path d="M179.599 47.9393C178.862 47.9393 178.229 47.7443 177.701 47.3543C177.172 46.9643 176.765 46.4183 176.479 45.7163C176.201 45.0057 176.063 44.178 176.063 43.2333C176.063 42.2887 176.201 41.4653 176.479 40.7633C176.765 40.0527 177.172 39.5023 177.701 39.1123C178.229 38.7223 178.862 38.5273 179.599 38.5273C180.335 38.5273 180.968 38.7223 181.497 39.1123C182.025 39.5023 182.428 40.0527 182.706 40.7633C182.992 41.4653 183.135 42.2887 183.135 43.2333C183.135 44.178 182.992 45.0057 182.706 45.7163C182.428 46.4183 182.025 46.9643 181.497 47.3543C180.968 47.7443 180.335 47.9393 179.599 47.9393ZM179.599 46.9123C180.318 46.9123 180.899 46.5917 181.341 45.9503C181.791 45.309 182.017 44.4033 182.017 43.2333C182.017 42.0633 181.791 41.1577 181.341 40.5163C180.899 39.875 180.318 39.5543 179.599 39.5543C178.871 39.5543 178.286 39.875 177.844 40.5163C177.402 41.1577 177.181 42.0633 177.181 43.2333C177.181 44.4033 177.402 45.309 177.844 45.9503C178.286 46.5917 178.871 46.9123 179.599 46.9123Z" fill="white"/>
<path d="M172.519 47.9393C171.782 47.9393 171.145 47.7443 170.608 47.3543C170.079 46.9643 169.672 46.4183 169.386 45.7163C169.108 45.0143 168.97 44.1867 168.97 43.2333C168.97 42.2887 169.108 41.4653 169.386 40.7633C169.672 40.0527 170.079 39.5023 170.608 39.1123C171.145 38.7223 171.782 38.5273 172.519 38.5273C173.455 38.5273 174.209 38.7873 174.781 39.3073C175.353 39.8187 175.686 40.5033 175.782 41.3613H174.573C174.486 40.85 174.269 40.421 173.923 40.0743C173.576 39.7277 173.108 39.5543 172.519 39.5543C171.765 39.5543 171.171 39.8837 170.738 40.5423C170.304 41.1923 170.088 42.0893 170.088 43.2333C170.088 44.386 170.304 45.2873 170.738 45.9373C171.171 46.5873 171.765 46.9123 172.519 46.9123C173.134 46.9123 173.606 46.7477 173.936 46.4183C174.274 46.089 174.486 45.6643 174.573 45.1443H175.782C175.643 46.011 175.296 46.6957 174.742 47.1983C174.196 47.6923 173.455 47.9393 172.519 47.9393Z" fill="white"/>
<path d="M157.618 47.7836V44.2086L154.667 38.6836H155.902L158.164 43.1036L160.426 38.6836H161.661L158.71 44.2086V47.7836H157.618Z" fill="white"/>
<path d="M148.25 47.7836V38.6836H149.342V46.7956H153.957V47.7836H148.25Z" fill="white"/>
<path d="M140.715 47.7836V38.6836H141.833L145.967 45.8726V38.6836H147.046V47.7836H145.915L141.781 40.5946V47.7836H140.715Z" fill="white"/>
<path d="M136.729 47.9393C135.992 47.9393 135.36 47.7443 134.831 47.3543C134.302 46.9643 133.895 46.4183 133.609 45.7163C133.332 45.0057 133.193 44.178 133.193 43.2333C133.193 42.2887 133.332 41.4653 133.609 40.7633C133.895 40.0527 134.302 39.5023 134.831 39.1123C135.36 38.7223 135.992 38.5273 136.729 38.5273C137.466 38.5273 138.098 38.7223 138.627 39.1123C139.156 39.5023 139.559 40.0527 139.836 40.7633C140.122 41.4653 140.265 42.2887 140.265 43.2333C140.265 44.178 140.122 45.0057 139.836 45.7163C139.559 46.4183 139.156 46.9643 138.627 47.3543C138.098 47.7443 137.466 47.9393 136.729 47.9393ZM136.729 46.9123C137.448 46.9123 138.029 46.5917 138.471 45.9503C138.922 45.309 139.147 44.4033 139.147 43.2333C139.147 42.0633 138.922 41.1577 138.471 40.5163C138.029 39.875 137.448 39.5543 136.729 39.5543C136.001 39.5543 135.416 39.875 134.974 40.5163C134.532 41.1577 134.311 42.0633 134.311 43.2333C134.311 44.4033 134.532 45.309 134.974 45.9503C135.416 46.5917 136.001 46.9123 136.729 46.9123Z" fill="white"/>
<path d="M119.28 47.7836V38.6836H120.398L124.532 45.8726V38.6836H125.611V47.7836H124.48L120.346 40.5946V47.7836H119.28Z" fill="white"/>
<path d="M112.681 47.7836V46.8346H114.748V39.6326H112.681V38.6836H117.907V39.6326H115.84V46.8346H117.907V47.7836H112.681Z" fill="white"/>
<path d="M108.149 47.9393C107.413 47.9393 106.78 47.7443 106.251 47.3543C105.723 46.9643 105.315 46.4183 105.029 45.7163C104.752 45.0057 104.613 44.178 104.613 43.2333C104.613 42.2887 104.752 41.4653 105.029 40.7633C105.315 40.0527 105.723 39.5023 106.251 39.1123C106.78 38.7223 107.413 38.5273 108.149 38.5273C108.886 38.5273 109.519 38.7223 110.047 39.1123C110.576 39.5023 110.979 40.0527 111.256 40.7633C111.542 41.4653 111.685 42.2887 111.685 43.2333C111.685 44.178 111.542 45.0057 111.256 45.7163C110.979 46.4183 110.576 46.9643 110.047 47.3543C109.519 47.7443 108.886 47.9393 108.149 47.9393ZM108.149 46.9123C108.869 46.9123 109.449 46.5917 109.891 45.9503C110.342 45.309 110.567 44.4033 110.567 43.2333C110.567 42.0633 110.342 41.1577 109.891 40.5163C109.449 39.875 108.869 39.5543 108.149 39.5543C107.421 39.5543 106.836 39.875 106.394 40.5163C105.952 41.1577 105.731 42.0633 105.731 43.2333C105.731 44.4033 105.952 45.309 106.394 45.9503C106.836 46.5917 107.421 46.9123 108.149 46.9123Z" fill="white"/>
<path d="M101.07 47.9393C100.333 47.9393 99.6958 47.7443 99.1585 47.3543C98.6298 46.9643 98.2225 46.4183 97.9365 45.7163C97.6592 45.0143 97.5205 44.1867 97.5205 43.2333C97.5205 42.2887 97.6592 41.4653 97.9365 40.7633C98.2225 40.0527 98.6298 39.5023 99.1585 39.1123C99.6958 38.7223 100.333 38.5273 101.07 38.5273C102.006 38.5273 102.76 38.7873 103.332 39.3073C103.904 39.8187 104.237 40.5033 104.333 41.3613H103.124C103.037 40.85 102.82 40.421 102.474 40.0743C102.127 39.7277 101.659 39.5543 101.07 39.5543C100.316 39.5543 99.7218 39.8837 99.2885 40.5423C98.8552 41.1923 98.6385 42.0893 98.6385 43.2333C98.6385 44.386 98.8552 45.2873 99.2885 45.9373C99.7218 46.5873 100.316 46.9123 101.07 46.9123C101.685 46.9123 102.157 46.7477 102.487 46.4183C102.825 46.089 103.037 45.6643 103.124 45.1443H104.333C104.194 46.011 103.847 46.6957 103.293 47.1983C102.747 47.6923 102.006 47.9393 101.07 47.9393Z" fill="white"/>
<path d="M93.3135 47.7836V39.6716H90.8695V38.6836H96.8495V39.6716H94.4055V47.7836H93.3135Z" fill="white"/>
<path d="M84.1016 47.7836V46.8346H86.1686V39.6326H84.1016V38.6836H89.3276V39.6326H87.2606V46.8346H89.3276V47.7836H84.1016Z" fill="white"/>
<path d="M76.5277 47.7836V38.6836H79.5567C80.5014 38.6836 81.212 38.9003 81.6887 39.3336C82.1654 39.7669 82.4037 40.3216 82.4037 40.9976C82.4037 41.5263 82.2607 41.9639 81.9747 42.3106C81.6887 42.6486 81.368 42.8869 81.0127 43.0256V43.1166C81.4374 43.2553 81.81 43.5066 82.1307 43.8706C82.4514 44.2346 82.6117 44.7026 82.6117 45.2746C82.6117 45.7426 82.4947 46.1673 82.2607 46.5486C82.0354 46.9213 81.7017 47.2203 81.2597 47.4456C80.8264 47.6709 80.2934 47.7836 79.6607 47.7836H76.5277ZM77.6197 42.6096H79.4787C80.0594 42.6096 80.5014 42.4839 80.8047 42.2326C81.1167 41.9726 81.2727 41.5999 81.2727 41.1146C81.2727 40.6553 81.121 40.2999 80.8177 40.0486C80.5144 39.7973 80.055 39.6716 79.4397 39.6716H77.6197V42.6096ZM77.6197 46.7826H79.5437C80.1677 46.7826 80.6487 46.6439 80.9867 46.3666C81.3247 46.0806 81.4937 45.6819 81.4937 45.1706C81.4937 44.6593 81.316 44.2649 80.9607 43.9876C80.6054 43.7016 80.1244 43.5586 79.5177 43.5586H77.6197V46.7826Z" fill="white"/>
<path d="M62.4978 47.7836V38.6836H68.1788V39.6716H63.5898V42.7006H67.7888V43.6886H63.5898V46.7956H68.1788V47.7836H62.4978Z" fill="white"/>
<path d="M54.8459 47.7836V38.6836H55.9379V42.6096H60.3449V38.6836H61.4369V47.7836H60.3449V43.5976H55.9379V47.7836H54.8459Z" fill="white"/>
<path d="M50.444 47.7836V39.6716H48V38.6836H53.98V39.6716H51.536V47.7836H50.444Z" fill="white"/>
</svg>
